<svg width="464" height="80" viewBox="0 0 464 80" fill="none" xmlns="http://www.w3.org/2000/svg">
<path d="M463.612 3.06494C379.635 3.06494 295.758 5.04486 211.905 8.02204C204.194 7.85695 196.453 7.66958 188.671 7.433C148.86 6.22266 245.299 3.06494 249.153 3.06494H463.612Z" fill="#39B755"/>
<path d="M3 16.9399C156.514 9.69885 309.894 3.06494 463.612 3.06494C535.099 3.06494 320.639 3.06494 249.153 3.06494C245.299 3.06494 148.86 6.22266 188.671 7.433C249.772 9.29057 308.393 8.11446 369.06 16.9399C378.937 18.3768 466.003 25.575 412.903 26.1899C377.872 26.5957 342.951 28.0084 308.05 31.0719C296.431 32.0918 270.097 34.5956 256.548 37.4955C244.237 40.1304 250.422 41.1466 259.717 42.1205C288.976 45.1859 318.583 44.1315 347.931 45.7177C353.669 46.0278 359.433 46.3185 365.098 47.2594C373.926 48.7257 367.953 50.541 363.778 52.1413C353.146 56.216 306.728 62.4175 316.766 77.0649" stroke="#FBC739" stroke-width="5" stroke-linecap="round"/>
</svg>
