<svg width="67" height="68" viewBox="0 0 67 68" fill="none" xmlns="http://www.w3.org/2000/svg">
<path d="M1.68176 13.5454L31.2272 31.7272L60.7727 13.5454" stroke="#CF916D" stroke-width="3" stroke-miterlimit="10" stroke-linecap="round" stroke-linejoin="round"/>
<path d="M56.2272 45.3635L47.1363 54.4544L42.5908 49.909" stroke="#CF916D" stroke-width="3" stroke-miterlimit="10" stroke-linecap="round" stroke-linejoin="round"/>
<path d="M49.4091 65.8182C58.1954 65.8182 65.3182 58.6954 65.3182 49.9091C65.3182 41.1227 58.1954 34 49.4091 34C40.6227 34 33.5 41.1227 33.5 49.9091C33.5 58.6954 40.6227 65.8182 49.4091 65.8182Z" stroke="#CF916D" stroke-width="3" stroke-miterlimit="10" stroke-linecap="round" stroke-linejoin="round"/>
<path d="M33.7272 52.1818H10.7727C5.77267 52.1818 1.68176 48.0909 1.68176 43.0909V11.2727C1.68176 6.27267 5.77267 2.18176 10.7727 2.18176H51.6818C56.6818 2.18176 60.7727 6.27267 60.7727 11.2727V38.7727" stroke="#CF916D" stroke-width="3" stroke-miterlimit="10" stroke-linecap="round" stroke-linejoin="round"/>
</svg>
