<svg width="24" height="20" viewBox="0 0 24 20" fill="none" xmlns="http://www.w3.org/2000/svg">
<path d="M21.001 0.501099H3.00098C2.67267 0.501099 2.34758 0.565763 2.04427 0.6914C1.74095 0.817036 1.46536 1.00119 1.23321 1.23333C0.764369 1.70217 0.500977 2.33806 0.500977 3.0011V5.0011C0.50096 5.09092 0.525142 5.1791 0.570982 5.25635C0.616822 5.3336 0.682625 5.39707 0.761477 5.4401L11.7615 11.4401C11.8349 11.4802 11.9173 11.5012 12.001 11.5012C12.0847 11.5012 12.167 11.4802 12.2405 11.4401L23.2405 5.4401C23.3193 5.39707 23.3851 5.3336 23.431 5.25635C23.4768 5.1791 23.501 5.09092 23.501 5.0011V3.0011C23.501 2.33806 23.2376 1.70217 22.7687 1.23333C22.2999 0.764491 21.664 0.501099 21.001 0.501099Z" fill="#25373F"/>
<path d="M12.7195 12.3188C12.4993 12.4387 12.2527 12.5016 12.002 12.5016C11.7513 12.5016 11.5046 12.4387 11.2845 12.3188L0.512477 6.44434L0.500977 6.45184V17.0018C0.500977 17.6649 0.764369 18.3008 1.23321 18.7696C1.70205 19.2384 2.33794 19.5018 3.00098 19.5018H21.001C21.664 19.5018 22.2999 19.2384 22.7687 18.7696C23.2376 18.3008 23.501 17.6649 23.501 17.0018V6.45184L23.4895 6.44484L12.7195 12.3188Z" fill="#25373F"/>
</svg>
