<svg width="52" height="64" viewBox="0 0 52 64" fill="none" xmlns="http://www.w3.org/2000/svg">
<path d="M13.2727 0.181763C8.0089 0.181763 3.72723 4.46343 3.72723 9.72723C3.72723 14.991 8.0089 19.2727 13.2727 19.2727C18.5365 19.2727 22.8182 14.991 22.8182 9.72723C22.8182 4.46343 18.5365 0.181763 13.2727 0.181763ZM13.2727 16.0909C9.75791 16.0909 6.90906 13.242 6.90906 9.72723C6.90906 6.21244 9.75791 3.36359 13.2727 3.36359C16.7875 3.36359 19.6364 6.21244 19.6364 9.72723C19.6364 13.242 16.7875 16.0909 13.2727 16.0909Z" fill="#CF916D"/>
<path d="M13.2727 47.9091H5.31813C4.44202 47.9091 3.72723 47.1943 3.72723 46.3182V32C3.72723 31.1207 3.01554 30.4091 2.13632 30.4091C1.25709 30.4091 0.54541 31.1207 0.54541 32V46.3182C0.54541 48.9495 2.6868 51.0909 5.31813 51.0909H6.90904V60.6363H5.31813C4.43891 60.6363 3.72723 61.348 3.72723 62.2273C3.72723 63.1065 4.43891 63.8182 5.31813 63.8182H11.6818C12.561 63.8182 13.2727 63.1065 13.2727 62.2273C13.2727 61.348 12.561 60.6363 11.6818 60.6363H10.0909V51.0909H13.2727C14.5529 51.0909 14.8444 51.9638 14.8636 52.6977C14.8732 53.5674 15.5816 54.2727 16.4545 54.2727C17.3337 54.2727 18.0454 53.561 18.0454 52.6818C18.0454 50.7643 16.7748 47.9091 13.2727 47.9091Z" fill="#CF916D"/>
<path d="M49.8636 31.9999H22.8181C21.9389 31.9999 21.2272 32.7116 21.2272 33.5908C21.2272 34.4701 21.9389 35.1817 22.8181 35.1817H24.4091V37.6614L19.6363 36.0705V28.8181C19.6363 25.3097 16.7811 22.4545 13.2727 22.4545C9.76424 22.4545 6.90906 25.3097 6.90906 28.8181V41.5454C6.90906 43.0058 7.90288 44.2785 9.31879 44.6317L20.0925 47.3257L22.8798 61.261C23.1777 62.748 24.4833 63.8181 26 63.8181H48.2727V35.1817H49.8636C50.7428 35.1817 51.4545 34.4701 51.4545 33.5908C51.4545 32.7116 50.7428 31.9999 49.8636 31.9999ZM24.4091 52.6817L22.8181 44.7272L10.0909 41.5454V28.8181C10.0909 27.0606 11.5152 25.6363 13.2727 25.6363C15.0302 25.6363 16.4545 27.0606 16.4545 28.8181V38.3636L24.4091 41.015V52.6817ZM45.0909 60.6363H27.5909V35.1817H45.0909V60.6363Z" fill="#CF916D"/>
<path d="M43.8851 12.9552C43.0185 12.7474 42.1669 13.2596 41.9558 14.1145L39.0752 25.6359H27.5909C26.7117 25.6359 26 26.3476 26 27.2268C26 28.106 26.7117 28.8177 27.5909 28.8177H40.3182C41.0479 28.8177 41.6854 28.3203 41.8625 27.6119L45.0443 14.8846C45.2553 14.0328 44.7398 13.1695 43.8851 12.9552Z" fill="#CF916D"/>
</svg>
