<svg width="56" height="64" viewBox="0 0 56 64" fill="none" xmlns="http://www.w3.org/2000/svg">
<path d="M55.5676 58.7398H55.5773L52.4079 41.7176V41.7079C51.9499 39.5614 50.0624 38.0214 47.8663 38.0214H8.01778C5.82183 38.0214 3.93436 39.5614 3.48692 41.7079V41.7176L0.316535 58.7301V58.7398C0.257373 59.0184 0.227295 59.2959 0.227295 59.5841C0.227295 60.5487 0.555296 61.492 1.18134 62.2576C1.98662 63.2417 3.189 63.818 4.4611 63.818H16.1762H39.6982H51.4239C52.6951 63.818 53.9082 63.2417 54.7029 62.2576C55.3288 61.492 55.6568 60.5487 55.6568 59.5841C55.6568 59.3066 55.6267 59.0185 55.5676 58.7398ZM53.1628 61.0059C52.7349 61.5222 52.0993 61.8307 51.4239 61.8307H37.3032C36.0503 61.0747 34.7393 60.5585 33.9145 60.2499C32.8111 59.8433 31.2013 58.6303 31.2013 57.885V55.9179C31.8379 55.2124 32.3241 53.7713 32.6122 52.1419C33.2886 51.9033 33.6662 51.5151 34.1533 49.8362C34.6599 48.0477 33.378 48.107 33.378 48.107C34.4116 44.689 33.0501 41.4693 30.7744 41.7079C29.2042 38.9549 23.9377 42.3338 22.2881 42.1049C22.2881 43.0491 22.686 43.7546 22.686 43.7546C22.1095 44.8377 22.3376 47.0142 22.4967 48.107C22.3977 48.107 21.2449 48.1167 21.732 49.8362C22.2183 51.5151 22.5966 51.9033 23.2721 52.1419C23.5603 53.7713 24.0474 55.2124 24.683 55.9179V57.885C24.683 58.6302 22.9741 59.9024 21.9698 60.2499C21.1352 60.5489 19.8038 61.065 18.5423 61.8307H4.4611C3.78484 61.8307 3.1491 61.5222 2.72216 61.0059C2.39429 60.5982 2.21469 60.0917 2.21469 59.5842C2.21469 59.4358 2.23507 59.2766 2.26416 59.1271V59.1175L5.43454 42.1147V42.0953C5.69269 40.8726 6.77563 40.009 8.01778 40.009H47.8662C49.1083 40.009 50.1914 40.8726 50.4494 42.0953L53.6198 59.1175V59.1271C53.6498 59.2766 53.6693 59.4358 53.6693 59.5842C53.6694 60.0916 53.4908 60.5982 53.1628 61.0059Z" fill="#CF916D"/>
<path d="M33.5798 19.4068C33.5798 20.0162 33.8339 20.4722 33.8339 20.4722C33.4613 21.1768 33.6069 22.578 33.7098 23.2874C33.6506 23.2865 32.9034 23.2942 33.2217 24.4044C33.5303 25.4893 33.7768 25.7377 34.2125 25.892C34.3978 26.9469 34.7104 27.8755 35.1228 28.3345C35.1228 28.8839 35.1228 29.2856 35.1228 29.6057L35.1073 29.7077L36.5095 30.3821V31.465H37.9525V30.3811L39.3528 29.7077L39.3372 29.6057C39.3372 29.2856 39.3372 28.8839 39.3372 28.3345C39.7498 27.8755 40.0641 26.9469 40.2475 25.892C40.6814 25.7377 40.9316 25.4893 41.2404 24.4044C41.5702 23.2476 40.7444 23.2874 40.7444 23.2874C41.4131 21.0777 40.5329 19.0011 39.0618 19.1534C38.0476 17.3776 34.6462 19.5582 33.5798 19.4068Z" fill="#CF916D"/>
<path d="M38.1358 34.5668L37.9524 32.2348H36.5094L36.3251 34.5668L33.9757 30.951C32.9093 30.951 29.9464 33.5808 29.7737 36.759H44.6891C44.5153 33.5808 41.5536 30.951 40.4862 30.951L38.1358 34.5668Z" fill="#CF916D"/>
<path d="M15.6374 25.8921C15.8227 26.947 16.1372 27.8756 16.5477 28.3346C16.5477 28.884 16.5477 29.2857 16.5477 29.6058L16.5322 29.7078L17.9344 30.3812V31.4651H19.3776V30.3812L20.7768 29.7078L20.7623 29.6058C20.7623 29.2857 20.7623 28.884 20.7623 28.3346C21.1757 27.8756 21.4871 26.947 21.6736 25.8921C22.1073 25.7378 22.3567 25.4894 22.6654 24.4044C22.9972 23.2477 22.1715 23.2874 22.1715 23.2874C22.8382 21.0778 21.9579 19.0012 20.4858 19.1534C19.4728 17.3776 16.0713 19.5581 15.0068 19.4067C15.0068 20.0161 15.2601 20.4722 15.2601 20.4722C14.8885 21.1768 15.032 22.578 15.1369 23.2873C15.0758 23.2864 14.3285 23.2942 14.6468 24.4043C14.9553 25.4894 15.2038 25.7378 15.6374 25.8921Z" fill="#CF916D"/>
<path d="M21.9114 30.9509L19.5619 34.5666L19.3776 32.2347H17.9345L17.7512 34.5666L15.4007 30.9509C14.3343 30.9509 11.3715 33.5807 11.1989 36.7589H26.1133C25.9386 33.5808 22.9798 30.9509 21.9114 30.9509Z" fill="#CF916D"/>
<path d="M22.5965 14.7779L21.0866 18.5499L22.1764 18.4149C25.9426 17.9443 29.5486 16.5342 31.2615 15.7938C32.8889 15.2135 34.2922 14.2198 35.3041 12.9312C36.3212 11.6327 36.9393 10.0188 36.9384 8.27501C36.9393 7.13378 36.6754 6.04401 36.2066 5.06685C35.5031 3.59861 34.3472 2.3807 32.9179 1.52683C31.4874 0.674696 29.7786 0.183627 27.9426 0.181763C25.5 0.183627 23.2749 1.05515 21.6387 2.49815C20.8206 3.22015 20.149 4.08769 19.6823 5.06685C19.2136 6.04401 18.9496 7.13391 18.9496 8.27501C18.9496 9.72871 19.3795 11.097 20.1142 12.2625C20.743 13.2592 21.5931 14.1112 22.5965 14.7779ZM20.7886 5.72769C21.3553 4.54197 22.3208 3.5044 23.561 2.765C24.8023 2.02461 26.3123 1.58499 27.9424 1.58499C30.12 1.58499 32.0783 2.36715 33.471 3.59762C34.1668 4.21285 34.7218 4.93672 35.0984 5.72769C35.4768 6.51955 35.6826 7.37453 35.6826 8.27514C35.6826 9.6463 35.2061 10.9225 34.3579 12.0074C33.5116 13.0894 32.2909 13.9638 30.845 14.4722L30.8256 14.4781L30.8062 14.4868C29.3243 15.1302 26.3267 16.2984 23.1408 16.8527L24.2208 14.1588L23.69 13.855C22.6206 13.2436 21.7444 12.411 21.1417 11.4551C20.538 10.4973 20.2062 9.42109 20.2052 8.27501C20.2054 7.37453 20.4101 6.51955 20.7886 5.72769Z" fill="#CF916D"/>
<path d="M24.3967 9.56274C24.9353 9.56274 25.3739 9.07466 25.3739 8.47198C25.3739 7.87128 24.9353 7.3822 24.3967 7.3822C23.8572 7.3822 23.4204 7.87128 23.4204 8.47198C23.4203 9.07466 23.857 9.56274 24.3967 9.56274Z" fill="#CF916D"/>
<path d="M28.1638 9.56274C28.7032 9.56274 29.141 9.07466 29.141 8.47198C29.141 7.87128 28.7032 7.3822 28.1638 7.3822C27.6241 7.3822 27.1866 7.87128 27.1866 8.47198C27.1866 9.07466 27.6243 9.56274 28.1638 9.56274Z" fill="#CF916D"/>
<path d="M31.931 9.56274C32.4706 9.56274 32.9082 9.07466 32.9082 8.47198C32.9082 7.87128 32.4706 7.3822 31.931 7.3822C31.3914 7.3822 30.9539 7.87128 30.9539 8.47198C30.9537 9.07466 31.3914 9.56274 31.931 9.56274Z" fill="#CF916D"/>
</svg>
