<svg width="56" height="60" viewBox="0 0 56 60" fill="none" xmlns="http://www.w3.org/2000/svg">
<path d="M38.4147 35.8922C38.4147 33.9008 40.0611 32.2843 42.0892 32.2843C44.1174 32.2843 45.7638 33.9008 45.7638 35.8922C45.7638 37.8836 44.1174 39.5002 42.0892 39.5002C40.0611 39.5002 38.4147 37.8836 38.4147 35.8922ZM41.2302 44.8653C41.2302 42.8739 39.5839 41.2573 37.5557 41.2573C35.5275 41.2573 33.8811 42.8739 33.8811 44.8653C33.8811 46.8567 35.5275 48.4733 37.5557 48.4733C39.5839 48.4733 41.2302 46.8567 41.2302 44.8653ZM31.7098 49.1292H27.5819H23.4779C20.9725 49.1292 19.3977 51.1675 19.3977 53.7212V60H22.2132V54.4475C22.2132 54.1898 22.428 54.0258 22.6427 54.0258C22.9052 54.0258 23.0722 54.1898 23.0722 54.4475V59.9766H32.1393V54.4475C32.1393 54.1898 32.3541 54.0258 32.5688 54.0258C32.8313 54.0258 32.9983 54.2366 32.9983 54.4475V59.9766H35.8139V53.7446C35.8616 51.1675 34.2868 49.1292 31.7098 49.1292ZM36.4104 35.8922C36.4104 33.9008 34.764 32.2843 32.7358 32.2843C30.7077 32.2843 29.0613 33.9008 29.0613 35.8922C29.0613 37.8836 30.7077 39.5002 32.7358 39.5002C34.764 39.5002 36.4104 37.8836 36.4104 35.8922ZM43.5209 44.8653C43.5209 46.8567 45.1673 48.4733 47.1954 48.4733C49.2236 48.4733 50.87 46.8567 50.87 44.8653C50.87 42.8739 49.2236 41.2573 47.1954 41.2573C45.1673 41.2573 43.5209 42.8739 43.5209 44.8653ZM51.4426 49.1058H47.3147H43.163V49.1292C40.6576 49.1292 39.0828 51.1675 39.0828 53.7212V60H41.8983V54.4475C41.8983 54.1898 42.1131 54.0258 42.3278 54.0258C42.5903 54.0258 42.7573 54.1898 42.7573 54.4475V59.9766H51.8244V54.4475C51.8244 54.1898 52.0391 54.0258 52.2539 54.0258C52.5164 54.0258 52.6834 54.2366 52.6834 54.4475V59.9766H55.4989V53.7446C55.5467 51.1441 53.9719 49.1058 51.4426 49.1058ZM8.75581 48.4733C10.784 48.4733 12.4304 46.8567 12.4304 44.8653C12.4304 42.8739 10.784 41.2573 8.75581 41.2573C6.72765 41.2573 5.08126 42.8739 5.08126 44.8653C5.08126 46.8567 6.72765 48.4733 8.75581 48.4733ZM12.836 49.1058H8.70809H4.58018C2.07481 49.1058 0.5 51.1441 0.5 53.6978V59.9766H3.2917V54.4475C3.2917 54.1898 3.50645 54.0258 3.7212 54.0258C3.98366 54.0258 4.15069 54.1898 4.15069 54.4475V59.9766H13.2178V54.4475C13.2178 54.1898 13.4325 54.0258 13.6473 54.0258C13.9097 54.0258 14.0767 54.2366 14.0767 54.4475V59.9766H16.8923V53.7446C16.9639 51.1441 15.3652 49.1058 12.836 49.1058ZM27.6058 48.4733C29.6339 48.4733 31.2803 46.8567 31.2803 44.8653C31.2803 42.8739 29.6339 41.2573 27.6058 41.2573C25.5776 41.2573 23.9312 42.8739 23.9312 44.8653C23.9312 46.8567 25.5776 48.4733 27.6058 48.4733ZM13.4564 39.5002C15.4845 39.5002 17.1309 37.8836 17.1309 35.8922C17.1309 33.9008 15.4845 32.2843 13.4564 32.2843C11.4282 32.2843 9.78182 33.9008 9.78182 35.8922C9.78182 37.8836 11.4282 39.5002 13.4564 39.5002ZM19.684 35.8922C19.684 37.8836 21.3304 39.5002 23.3586 39.5002C25.3867 39.5002 27.0331 37.8836 27.0331 35.8922C27.0331 33.9008 25.3867 32.2843 23.3586 32.2843C21.3304 32.2843 19.684 33.9242 19.684 35.8922ZM22.0939 44.8653C22.0939 42.8739 20.4476 41.2573 18.4194 41.2573C16.3912 41.2573 14.7448 42.8739 14.7448 44.8653C14.7448 46.8567 16.3912 48.4733 18.4194 48.4733C20.4476 48.4733 22.0939 46.8567 22.0939 44.8653ZM26.4127 21.7181H29.109L28.8465 20.3358H26.6752L26.4127 21.7181ZM27.1047 17.9695L26.9377 18.9067H28.6318L28.4648 17.9695H27.1047ZM19.2545 10.941C19.2545 6.23194 23.1915 2.41312 28.0114 2.41312C32.8313 2.41312 36.7683 6.20851 36.7683 10.941V21.9289H39.2498V10.941C39.2498 4.89652 34.2152 0 28.0114 0C21.8076 0 16.773 4.89652 16.773 10.941V21.9289H19.2545V10.941ZM25.7924 25.4198H29.7771L29.443 23.5689H26.1025L25.7924 25.4198ZM31.0894 12.6513C31.0894 10.8708 29.5862 9.4182 27.7728 9.4182C25.9594 9.4182 24.4562 10.8708 24.4562 12.6513V17.0558H31.0894V12.6513Z" fill="#07AA3D"/>
</svg>
