<svg width="900" height="600" viewBox="0 0 238.125 158.75" xmlns="http://www.w3.org/2000/svg">
  <path fill="#d9211c" style="fill:#dc211c;fill-opacity:1" d="M-.00060921-.00716053h327.50879v145.55946h-327.50879z" transform="matrix(.72708 0 0 .72708 .0004429 .0052062)"/>
  <path fill="#d9211c" style="fill:#dc211c;fill-opacity:1" d="M-.00060921 72.77256h327.50879v145.55946h-327.50879z" transform="matrix(.72708 0 0 .72708 .0004429 .0052062)"/>
  <path fill="#02943f" style="fill:#029433;fill-opacity:1" d="M-.00060921 72.77256h327.50879v72.779732h-327.50879z" transform="matrix(.72708 0 0 .72708 .0004429 .0052062)"/>
  <path style="opacity:1;fill:#f3c502;stroke-width:3.5" transform="matrix(-.21642 0 0 -.21674 142.7812246 104.40271513)" d="m109.59609 420.66381-28.262054-46.22089-37.537413 39.06477-17.665173-51.21578-45.057579 30.08203-6.242293-53.81588-50.470904 19.69268 5.47247-53.8996-53.524264 8.38252 16.93135-51.46303-54.0749-3.31959 27.59854-46.62012-52.09704-14.86649 36.97524-39.59729-47.68318-25.71824 44.62303-30.72295-41.03972-35.36744 50.1843-20.412032-32.47728-43.3628905 53.399-9.1466707-22.39624-49.3307438 54.116823 2.546379-11.267973-52.991952 52.304205 14.120367.387171-54.175307 48.04589843 25.0341L11.862312-175.48573l41.541023 34.77726 23.099006-49.00561 33.093729 42.89428 33.09373-42.89428 23.09902 49.00561 41.54101-34.77727 12.02422 52.82549 48.04588-25.0341.38719 54.175315 52.30419-14.120375-11.26796 52.991958 54.11681-2.546389-22.39622 49.3307541 53.39899 9.1466592-32.47727 43.3629017 50.18429 20.41202-41.03971 35.367446 44.62303 30.72294-47.68319 25.71825 36.97525 39.59729-52.09704 14.8665 27.59854 46.6201-54.0749 3.31961 16.93136 51.46302-53.52428-8.38251 5.47248 53.89959-50.47091-19.69267-6.24228 53.81587-45.05759-30.08202-17.66516 51.21578-37.53743-39.06477z"/>
  <path d="M170.32268 68.589471c4.65108-1.700317 9.68894-2.724837 14.63766-2.540061 2.62596.09813 5.44461.487043 7.64514 1.923349 3.18732 2.080369 5.43764 5.548097 7.00725 9.015542.96959 2.141999-.38307 5.315048 1.32819 6.927497 1.78762 1.68441 5.09175-.107008 7.30651.955158 2.72999 1.30915 5.44067 3.377164 6.55666 6.285707 2.0168 5.25615-2.48826 8.874107-.40744 12.478157.59715 1.03429 3.86479.96198 5.27602 2.25234 2.10308 1.92302 3.72221 4.64712 4.04521 7.53167.81233 7.25441-4.88505 6.77785-5.22874 10.74675-.29455 3.40174 3.19877 6.44966 2.83148 9.84431-.33501 3.09636-2.02093 6.26175-4.44341 8.21911-2.20882 1.78472-6.16123 2.24424-8.17785 2.38719-3.54971.2744-6.04456-2.01061-9.15205-1.84354-1.20269.0645-2.47098.38097-3.44522 1.08915-.58678.42656-.80729 1.20803-1.26425 1.77141-.43977.54222-.79385 1.22742-1.41696 1.54232-1.35935.68709-2.40003.48545-3.61559.61627-1.1759.12656-2.36854.28862-3.54442.16178-2.42415-.26145-4.82339-.93149-7.06786-1.88395-.61408-.26058-1.33246-.48557-1.71423-1.03258-.34674-.49684.12502-1.40041-.34328-1.78488-.97772-.80285-3.33808-.19-3.79532.022 0 0-.7427 6.29781.86563 9.01697 2.61702 4.47573 4.80953 7.05582 9.41387 9.46547 4.00443 1.93246 9.25552 4.74394 12.37832 8.71884-21.74578-.85091-45.0115 1.31679-64.8632 0 3.20366-3.05056 7.66085-5.92392 11.00627-9.40054 2.6711-2.77585 5.25592-5.72237 7.16228-9.06992.98179-1.72402 1.70974-3.61791 2.13527-5.55571.43719-1.99077.39819-3.77479.39964-6.10152-1.22683-.11336-2.18507.0444-3.01801.32005-1.55623.51502-2.6751 1.44163-4.29109 1.7809-1.518.31869-3.06123.57398-4.6116.62167-1.3634.0417-2.84533.28037-4.08136-.29651-1.37168-.64019-2.04724-2.23533-3.16121-3.26021-.4281-.39382-.78543-.96437-1.34952-1.10635-1.90619-.47981-3.6376 1.37613-5.53136 1.78511-2.79454.60351-5.70379 1.45012-8.52201.96907-2.29282-.39137-4.6507-1.38286-6.27922-3.04367-1.1879-1.21147-1.91937-2.93945-2.12986-4.62306-.31603-2.52761.89127-5.01634 1.39025-7.51425.13323-.66663.42789-1.99401.42789-1.99401l-2.64785-2.51086c-2.09184-1.98364-4.15306-4.5118-4.2953-7.50638-.55566-11.69494 7.48095-12.45042 8.5218-14.347383 0 0 1.32545-1.627047 1.33701-2.492393.0405-3.020604-.23081-9.205682 2.37198-12.592239 4.10631-5.342817 6.95506-4.863447 11.00032-5.265388 1.81315-.180151 2.96131-.119644 3.88125-1.100406 1.0831-1.154783.34512-3.201906 1.00049-4.643149 1.06815-2.348966.88934-3.909357 4.63143-6.203116 2.86547-1.719945 5.08353-3.35614 7.99706-3.60713 3.72816-.32118 7.48183 1.212981 10.87176 2.797584 1.992.931158 3.43164 2.788021 5.35862 3.847264 1.22736.674688 2.50119 1.671009 3.89801 1.568427 2.20084-.161613 3.64229-2.584255 5.71494-3.341966z" fill="#02943f" style="fill:#029433;fill-opacity:1;stroke-width:.98313" transform="matrix(.72708 0 0 .72708 .0004429 .0052062)"/>
  <path style="opacity:1;fill:#dc211c;fill-opacity:1;stroke-width:2.5" transform="matrix(.13584 -.00038 .00038 .13584 61.01906481 23.1177443)" d="m469.01067 145.84077-42.06099-25.13613-42.20237 24.89804 10.90832-47.769872-36.72068-32.44292 48.8027-4.387272 19.50773-44.948863 19.25341 45.058386 48.77713 4.662995-36.90344 32.234886z"/>
</svg>
