<svg width="19" height="21" viewBox="0 0 19 21" fill="none" xmlns="http://www.w3.org/2000/svg">
<path d="M18.0028 13.1626L12.7477 18.4332C11.3731 19.8121 9.45903 20.6024 7.499 20.6024C5.57138 20.6024 3.77755 19.8675 2.44682 18.5325C-0.363073 15.7132 -0.318969 11.0824 2.54738 8.20871L8.53516 2.2042C9.47598 1.26025 10.7282 0.740723 12.0589 0.740723C13.3896 0.740723 14.642 1.26025 15.5828 2.2042C17.5241 4.15169 17.5241 7.32015 15.5828 9.26659L9.56571 15.2993C8.52559 16.3415 6.71288 16.3436 5.67066 15.2993C4.59918 14.2236 4.59918 12.4737 5.67066 11.3991L10.9561 6.09919C11.16 5.8943 11.4924 5.89429 11.6962 6.09814C11.9001 6.30198 11.9 6.63231 11.6972 6.8372L6.41206 12.1371C5.74512 12.8051 5.74512 13.8933 6.41206 14.5613C7.05494 15.2084 8.18169 15.2063 8.82458 14.5613L14.8417 8.52858C16.3784 6.98879 16.3784 4.48201 14.8417 2.94221C13.3552 1.45155 10.7628 1.45155 9.2763 2.94221L3.28851 8.94672C0.870622 11.3719 0.824427 15.4237 3.18796 17.7945C4.32112 18.9308 5.85153 19.557 7.499 19.557C9.18411 19.557 10.8285 18.8786 12.0066 17.6952L17.2616 12.4246C17.4655 12.2197 17.7979 12.2197 18.0017 12.4235C18.2056 12.6274 18.2066 12.9588 18.0028 13.1626Z" fill="#39B755"/>
</svg>
