<svg width="25" height="25" viewBox="0 0 25 25" fill="none" xmlns="http://www.w3.org/2000/svg">
<path d="M14.3902 0.557373C14.0075 0.557373 13.6973 0.873066 13.6973 1.26246C13.6973 1.65186 14.0075 1.96756 14.3902 1.96756C18.9753 1.96756 22.7055 5.7632 22.7055 10.4287C22.7055 10.8181 23.0158 11.1337 23.3985 11.1337C23.7811 11.1337 24.0914 10.8181 24.0914 10.4287C24.0914 4.98563 19.7394 0.557373 14.3902 0.557373Z" fill="#25373F"/>
<path d="M14.3902 10.4282C14.3902 10.4282 14.3902 10.4284 14.3902 10.4289C14.3902 10.8183 14.7005 11.134 15.0831 11.134C15.4658 11.134 15.7761 10.8183 15.7761 10.4289C15.7761 9.65128 15.1544 9.01868 14.3902 9.01868C14.0075 9.01868 13.6973 9.33404 13.6973 9.72344C13.6973 10.1128 14.0075 10.4282 14.3902 10.4282Z" fill="#25373F"/>
<path d="M14.3902 7.60891C15.9186 7.60891 17.162 8.87413 17.162 10.4293C17.162 10.8187 17.4722 11.1344 17.8549 11.1344C18.2376 11.1344 18.5479 10.8187 18.5479 10.4293C18.5479 8.09655 16.6827 6.19873 14.3902 6.19873C14.0075 6.19873 13.6973 6.51442 13.6973 6.90382C13.6973 7.29322 14.0075 7.60891 14.3902 7.60891Z" fill="#25373F"/>
<path d="M14.3902 3.37732C14.0075 3.37732 13.6973 3.69301 13.6973 4.08241C13.6973 4.47181 14.0075 4.7875 14.3902 4.7875C17.4469 4.7875 19.9337 7.31793 19.9337 10.4282C19.9337 10.8176 20.244 11.1333 20.6267 11.1333C21.0094 11.1333 21.3196 10.8176 21.3196 10.4282C21.3196 6.54036 18.2111 3.37732 14.3902 3.37732Z" fill="#25373F"/>
<path d="M23.9456 18.5762V22.1993C23.947 22.5357 23.8791 22.8686 23.7464 23.1768C23.6138 23.4849 23.4192 23.7616 23.1751 23.9889C22.931 24.2163 22.6429 24.3894 22.3292 24.4972C22.0154 24.6049 21.683 24.645 21.3531 24.6147C17.6936 24.2109 14.1784 22.941 11.09 20.9071C8.21658 19.0529 5.78043 16.5789 3.95456 13.6609C1.94472 10.5103 0.693957 6.92322 0.303598 3.19026C0.27388 2.85629 0.312963 2.5197 0.41836 2.20191C0.523757 1.88412 0.693157 1.59211 0.915777 1.34445C1.1384 1.09679 1.40936 0.898916 1.71141 0.763428C2.01346 0.62794 2.33998 0.557806 2.67018 0.55749H6.23789C6.81503 0.551722 7.37455 0.759269 7.81216 1.14145C8.24976 1.52363 8.53559 2.05436 8.61636 2.63472C8.76695 3.79418 9.04621 4.93262 9.44883 6.02833C9.60883 6.46059 9.64346 6.93037 9.54861 7.38201C9.45377 7.83364 9.23341 8.2482 8.91367 8.57656L7.40334 10.1103C9.09629 13.1338 11.5615 15.6373 14.5388 17.3565L16.0491 15.8227C16.3724 15.498 16.7807 15.2742 17.2254 15.1779C17.6701 15.0816 18.1327 15.1168 18.5584 15.2792C19.6373 15.6881 20.7584 15.9717 21.9001 16.1246C22.4778 16.2074 23.0054 16.5029 23.3826 16.9549C23.7597 17.4069 23.9601 17.984 23.9456 18.5762Z" fill="#25373F"/>
</svg>
