<svg width="45" height="45" viewBox="0 0 45 45" fill="none" xmlns="http://www.w3.org/2000/svg">
<path d="M22.5 39.375C19.1625 39.375 15.8998 38.3854 13.1248 36.531C10.3497 34.6768 8.18677 32.0413 6.90954 28.9579C5.63231 25.8742 5.29813 22.4812 5.94926 19.2079C6.60037 15.9344 8.20757 12.9276 10.5676 10.5676C12.9276 8.20757 15.9344 6.60037 19.2079 5.94926C22.4812 5.29813 25.8742 5.63231 28.9579 6.90954C32.0413 8.18677 34.6768 10.3497 36.531 13.1248C38.3854 15.8998 39.375 19.1625 39.375 22.5C39.375 26.9756 37.5971 31.2677 34.4325 34.4325C31.2677 37.5971 26.9756 39.375 22.5 39.375ZM22.5 8.4375C19.7186 8.4375 16.9999 9.26225 14.6873 10.8075C12.3747 12.3527 10.5723 14.5489 9.50795 17.1185C8.44359 19.6881 8.16512 22.5156 8.7077 25.2435C9.25031 27.9712 10.5896 30.477 12.5563 32.4437C14.523 34.4104 17.0287 35.7497 19.7565 36.2923C22.4844 36.8349 25.3119 36.5565 27.8814 35.4921C30.4511 34.4276 32.6473 32.6252 34.1925 30.3127C35.7377 28.0001 36.5625 25.2814 36.5625 22.5C36.5625 18.7704 35.0809 15.1936 32.4437 12.5563C29.8065 9.91908 26.2296 8.4375 22.5 8.4375Z" fill="black"/>
<path d="M22.5 31.4063C22.3153 31.4072 22.1321 31.3712 21.9615 31.3003C21.7908 31.2295 21.6362 31.1252 21.5062 30.9938L14.0062 23.4938C13.7429 23.2302 13.595 22.8728 13.595 22.5C13.595 22.1275 13.7429 21.7701 14.0062 21.5063L21.5062 14.0063C21.7728 13.7579 22.1253 13.6227 22.4897 13.6291C22.854 13.6356 23.2016 13.7831 23.4592 14.0408C23.7168 14.2984 23.8646 14.6461 23.871 15.0104C23.8773 15.3747 23.7422 15.7273 23.4937 15.9938L16.9875 22.5L23.4937 29.0063C23.7572 29.2701 23.9051 29.6275 23.9051 30C23.9051 30.3728 23.7572 30.7302 23.4937 30.9938C23.364 31.1252 23.2091 31.2295 23.0385 31.3003C22.8678 31.3712 22.6848 31.4072 22.5 31.4063Z" fill="black"/>
<path d="M30 23.9062H15C14.627 23.9062 14.2693 23.7581 14.0056 23.4943C13.7419 23.2307 13.5938 22.8729 13.5938 22.5C13.5938 22.1271 13.7419 21.7693 14.0056 21.5057C14.2693 21.2419 14.627 21.0938 15 21.0938H30C30.3729 21.0938 30.7307 21.2419 30.9943 21.5057C31.2581 21.7693 31.4062 22.1271 31.4062 22.5C31.4062 22.8729 31.2581 23.2307 30.9943 23.4943C30.7307 23.7581 30.3729 23.9062 30 23.9062Z" fill="black"/>
</svg>
