<svg width="44" height="45" viewBox="0 0 44 45" fill="none" xmlns="http://www.w3.org/2000/svg">
<path d="M4.93564 12.5249H16.3C17.4338 12.5249 18.5212 12.9753 19.3229 13.777C20.1246 14.5787 20.575 15.6661 20.575 16.7999C20.575 17.9337 20.1246 19.021 19.3229 19.8227C18.5212 20.6245 17.4338 21.0749 16.3 21.0749H4.93326C3.79946 21.0749 2.7121 20.6245 1.91038 19.8227C1.10866 19.021 0.658264 17.9337 0.658264 16.7999C0.658264 15.6661 1.10866 14.5787 1.91038 13.777C2.7121 12.9753 3.80184 12.5249 4.93564 12.5249ZM12.044 5.39986C12.044 6.53366 12.4944 7.62102 13.2961 8.42274C14.0979 9.22446 15.1852 9.67486 16.319 9.67486H20.594V5.39986C20.6276 4.81865 20.5421 4.23671 20.3428 3.6897C20.1436 3.1427 19.8346 2.64216 19.435 2.21879C19.0354 1.79541 18.5535 1.45812 18.019 1.22759C17.4844 0.997059 16.9083 0.878148 16.3261 0.878148C15.744 0.878148 15.1679 0.997059 14.6333 1.22759C14.0987 1.45812 13.6169 1.79541 13.2173 2.21879C12.8176 2.64216 12.5087 3.1427 12.3094 3.6897C12.1101 4.23671 12.0247 4.81865 12.0583 5.39986H12.044ZM39.0644 12.5249C37.9306 12.5249 36.8432 12.9753 36.0415 13.777C35.2398 14.5787 34.7894 15.6661 34.7894 16.7999V21.0749H39.0644C40.1982 21.0749 41.2856 20.6245 42.0873 19.8227C42.889 19.021 43.3394 17.9337 43.3394 16.7999C43.3394 15.6661 42.889 14.5787 42.0873 13.777C41.2856 12.9753 40.1982 12.5249 39.0644 12.5249ZM31.956 16.7999V5.39986C31.9924 4.81715 31.9091 4.23316 31.7111 3.6839C31.5131 3.13464 31.2048 2.63175 30.805 2.20624C30.4052 1.78073 29.9225 1.44161 29.3867 1.2098C28.8508 0.977991 28.2732 0.858398 27.6893 0.858398C27.1055 0.858398 26.5278 0.977991 25.992 1.2098C25.4561 1.44161 24.9734 1.78073 24.5737 2.20624C24.1739 2.63175 23.8655 3.13464 23.6676 3.6839C23.4696 4.23316 23.3862 4.81715 23.4226 5.39986V16.7999C23.3862 17.3826 23.4696 17.9666 23.6676 18.5158C23.8655 19.0651 24.1739 19.568 24.5737 19.9935C24.9734 20.419 25.4561 20.7581 25.992 20.9899C26.5278 21.2217 27.1055 21.3413 27.6893 21.3413C28.2732 21.3413 28.8508 21.2217 29.3867 20.9899C29.9225 20.7581 30.4052 20.419 30.805 19.9935C31.2048 19.568 31.5131 19.0651 31.7111 18.5158C31.9091 17.9666 31.9924 17.3826 31.956 16.7999ZM43.3323 28.1999C43.3323 27.0661 42.8819 25.9787 42.0801 25.177C41.2784 24.3753 40.1911 23.9249 39.0573 23.9249H27.7C26.5662 23.9249 25.4789 24.3753 24.6771 25.177C23.8754 25.9787 23.425 27.0661 23.425 28.1999C23.425 29.3337 23.8754 30.421 24.6771 31.2227C25.4789 32.0245 26.5662 32.4749 27.7 32.4749H39.0763C40.2068 32.4698 41.2893 32.0172 42.0869 31.216C42.8845 30.4149 43.3323 29.3304 43.3323 28.1999ZM23.4203 35.3249V39.5999C23.4203 40.4454 23.671 41.2719 24.1407 41.9749C24.6105 42.6779 25.2781 43.2259 26.0593 43.5494C26.8404 43.873 27.7 43.9577 28.5293 43.7927C29.3585 43.6278 30.1203 43.2206 30.7181 42.6227C31.316 42.0249 31.7232 41.2631 31.8881 40.4339C32.0531 39.6046 31.9684 38.745 31.6448 37.9639C31.3213 37.1827 30.7733 36.5151 30.0703 36.0453C29.3673 35.5756 28.5408 35.3249 27.6953 35.3249H23.4203ZM12.044 28.1999V39.5999C12.0076 40.1826 12.091 40.7666 12.2889 41.3158C12.4869 41.8651 12.7953 42.368 13.195 42.7935C13.5948 43.219 14.0775 43.5581 14.6133 43.7899C15.1492 44.0217 15.7269 44.1413 16.3107 44.1413C16.8945 44.1413 17.4722 44.0217 18.0081 43.7899C18.5439 43.5581 19.0266 43.219 19.4264 42.7935C19.8261 42.368 20.1345 41.8651 20.3325 41.3158C20.5304 40.7666 20.6138 40.1826 20.5774 39.5999V28.1999C20.6138 27.6171 20.5304 27.0332 20.3325 26.4839C20.1345 25.9346 19.8261 25.4318 19.4264 25.0062C19.0266 24.5807 18.5439 24.2416 18.0081 24.0098C17.4722 23.778 16.8945 23.6584 16.3107 23.6584C15.7269 23.6584 15.1492 23.778 14.6133 24.0098C14.0775 24.2416 13.5948 24.5807 13.195 25.0062C12.7953 25.4318 12.4869 25.9346 12.2889 26.4839C12.091 27.0332 12.0076 27.6171 12.044 28.1999ZM0.667764 28.1999C0.631373 28.7826 0.714727 29.3666 0.912687 29.9158C1.11065 30.4651 1.41902 30.968 1.81879 31.3935C2.21855 31.819 2.70124 32.1581 3.2371 32.3899C3.77295 32.6217 4.35061 32.7413 4.93445 32.7413C5.5183 32.7413 6.09595 32.6217 6.63181 32.3899C7.16766 32.1581 7.65035 31.819 8.05012 31.3935C8.44989 30.968 8.75826 30.4651 8.95622 29.9158C9.15418 29.3666 9.23753 28.7826 9.20114 28.1999V23.9249H4.92614C3.79522 23.9293 2.71213 24.3816 1.914 25.1828C1.11587 25.9841 0.667755 27.0689 0.667764 28.1999Z" fill="#07AA3D"/>
</svg>
