<svg width="58" height="59" viewBox="0 0 58 59" fill="none" xmlns="http://www.w3.org/2000/svg">
<path d="M58 29.5C58 21.536 53.0159 14.7342 46.0542 12.1519C43.5157 5.06998 36.829 0 29 0C21.1709 0 14.4843 5.06998 11.9458 12.1519C4.98405 14.7342 0 21.536 0 29.5C0 37.464 4.98405 44.2658 11.9458 46.8481C14.4843 53.93 21.1709 59 29 59C36.829 59 43.5157 53.93 46.0542 46.8481C53.0159 44.2658 58 37.464 58 29.5ZM29 1.88298C35.5344 1.88298 41.1816 5.8164 43.7764 11.4774C42.513 11.1931 41.2009 11.0419 39.8546 11.0419C35.8935 11.0419 32.0973 12.3618 29.0001 14.713C25.9028 12.3618 22.1066 11.0419 18.1455 11.0419C16.7991 11.0419 15.4871 11.1932 14.2237 11.4774C16.8184 5.8164 22.4656 1.88298 29 1.88298ZM45.2943 18.4582C45.2943 22.0123 44.1886 25.3084 42.3093 28.0101C38.9927 24.3678 34.2539 22.0837 29 22.0837C23.7461 22.0837 19.0073 24.3678 15.6907 28.0101C13.8114 25.3084 12.7057 22.0123 12.7057 18.4582C12.7057 16.783 12.9521 15.1654 13.4086 13.6399C14.9082 13.1756 16.4984 12.9248 18.1454 12.9248C21.5496 12.9248 24.8181 14.0106 27.5309 15.9547C26.5708 16.8578 25.6993 17.8715 24.9382 18.987C24.6467 19.4141 24.7507 20.0007 25.1708 20.2973C25.5907 20.5939 26.1675 20.4878 26.4589 20.0606C27.1982 18.9772 28.0535 18.0005 29 17.1411C29.9469 18.0009 30.8024 18.9779 31.5419 20.062C31.8332 20.4892 32.4098 20.5954 32.83 20.2988C33.2499 20.0024 33.3542 19.4158 33.0628 18.9885C32.3016 17.8724 31.4296 16.8582 30.4691 15.9547C33.182 14.0106 36.4504 12.9248 39.8546 12.9248C41.5015 12.9248 43.0918 13.1755 44.5914 13.6398C45.0479 15.1654 45.2943 16.783 45.2943 18.4582ZM44.5914 45.3601C43.0918 45.8244 41.5016 46.0751 39.8546 46.0751C36.4504 46.0751 33.1819 44.9893 30.4691 43.0451C31.4293 42.1419 32.3011 41.1279 33.0622 40.0122C33.3537 39.585 33.2495 38.9984 32.8296 38.7019C32.4095 38.4056 31.833 38.5113 31.5415 38.9386C30.8021 40.0225 29.9466 40.9992 29 41.8587C28.0534 40.9992 27.1979 40.0226 26.4586 38.9389C26.1673 38.5119 25.5907 38.4056 25.1705 38.7022C24.7507 38.9987 24.6464 39.5854 24.9379 40.0125C25.6991 41.1281 26.5707 42.1421 27.5307 43.0451C24.818 44.9893 21.5495 46.0751 18.1452 46.0751C16.4984 46.0751 14.9081 45.8244 13.4085 45.36C12.952 43.8345 12.7056 42.2169 12.7056 40.5417C12.7056 36.9876 13.8113 33.6915 15.6906 30.9898C19.0072 34.6321 23.7459 36.9162 28.9999 36.9162C34.2538 36.9162 38.9925 34.6321 42.3092 30.9898C44.1885 33.6915 45.2942 36.9876 45.2942 40.5417C45.2943 42.217 45.0479 43.8346 44.5914 45.3601ZM34.4395 29.5C34.4395 32.5511 31.9995 35.0333 29 35.0333C26.0005 35.0333 23.5605 32.5511 23.5605 29.5C23.5605 26.4489 26.0005 23.9667 29 23.9667C31.9995 23.9667 34.4395 26.4489 34.4395 29.5ZM23.1568 33.9305C20.7229 32.9762 18.5694 31.4441 16.8589 29.5C18.5693 27.5559 20.7229 26.0239 23.1568 25.0695C22.2481 26.3065 21.7094 27.8403 21.7094 29.5C21.7094 31.1597 22.2481 32.6934 23.1568 33.9305ZM34.8432 33.9305C35.7519 32.6935 36.2906 31.1597 36.2906 29.5C36.2906 27.8403 35.7519 26.3066 34.8432 25.0695C37.2771 26.0238 39.4306 27.5559 41.1411 29.5C39.4306 31.4441 37.277 32.9761 34.8432 33.9305ZM1.85106 29.5C1.85106 22.8531 5.71781 17.1086 11.2827 14.4689C11.0032 15.7541 10.8546 17.0888 10.8546 18.4582C10.8546 22.5952 12.1996 26.4187 14.468 29.5C12.1996 32.5813 10.8546 36.4048 10.8546 40.5418C10.8546 41.9112 11.0032 43.2459 11.2827 44.5311C5.71781 41.8914 1.85106 36.1469 1.85106 29.5ZM29 57.117C22.4656 57.117 16.8184 53.1836 14.2236 47.5226C15.487 47.8069 16.7991 47.9581 18.1454 47.9581C22.1065 47.9581 25.9028 46.6382 29 44.287C32.0973 46.6382 35.8935 47.9581 39.8546 47.9581C41.201 47.9581 42.513 47.8068 43.7764 47.5226C41.1816 53.1836 35.5344 57.117 29 57.117ZM46.7173 44.5311C46.9967 43.2459 47.1454 41.9112 47.1454 40.5418C47.1454 36.4048 45.8004 32.5813 43.532 29.5C45.8004 26.4187 47.1454 22.5952 47.1454 18.4582C47.1454 17.0888 46.9967 15.7541 46.7173 14.4689C52.2823 17.1085 56.1489 22.8531 56.1489 29.5C56.1489 36.1469 52.2823 41.8915 46.7173 44.5311Z" fill="#07AA3D"/>
</svg>
